<svg id="visual" viewBox="0 0 900 600" width="900" height="600" xmlns="http://www.w3.org/2000/svg" xmlns:xlink="http://www.w3.org/1999/xlink" version="1.1"><path d="M0 241L13.7 218C27.3 195 54.7 149 82 149C109.3 149 136.7 195 163.8 216C191 237 218 233 245.2 223C272.3 213 299.7 197 327 185C354.3 173 381.7 165 409 165C436.3 165 463.7 173 491 166C518.3 159 545.7 137 573 136C600.3 135 627.7 155 654.8 158C682 161 709 147 736.2 153C763.3 159 790.7 185 818 191C845.3 197 872.7 183 886.3 176L900 169L900 0L886.3 0C872.7 0 845.3 0 818 0C790.7 0 763.3 0 736.2 0C709 0 682 0 654.8 0C627.7 0 600.3 0 573 0C545.7 0 518.3 0 491 0C463.7 0 436.3 0 409 0C381.7 0 354.3 0 327 0C299.7 0 272.3 0 245.2 0C218 0 191 0 163.8 0C136.7 0 109.3 0 82 0C54.7 0 27.3 0 13.7 0L0 0Z" fill="#9cb6be"></path><path d="M0 301L13.7 285C27.3 269 54.7 237 82 242C109.3 247 136.7 289 163.8 306C191 323 218 315 245.2 310C272.3 305 299.7 303 327 288C354.3 273 381.7 245 409 251C436.3 257 463.7 297 491 291C518.3 285 545.7 233 573 229C600.3 225 627.7 269 654.8 288C682 307 709 301 736.2 313C763.3 325 790.7 355 818 363C845.3 371 872.7 357 886.3 350L900 343L900 167L886.3 174C872.7 181 845.3 195 818 189C790.7 183 763.3 157 736.2 151C709 145 682 159 654.8 156C627.7 153 600.3 133 573 134C545.7 135 518.3 157 491 164C463.7 171 436.3 163 409 163C381.7 163 354.3 171 327 183C299.7 195 272.3 211 245.2 221C218 231 191 235 163.8 214C136.7 193 109.3 147 82 147C54.7 147 27.3 193 13.7 216L0 239Z" fill="#86a6af"></path><path d="M0 373L13.7 362C27.3 351 54.7 329 82 332C109.3 335 136.7 363 163.8 373C191 383 218 375 245.2 366C272.3 357 299.7 347 327 333C354.3 319 381.7 301 409 312C436.3 323 463.7 363 491 360C518.3 357 545.7 311 573 304C600.3 297 627.7 329 654.8 345C682 361 709 361 736.2 373C763.3 385 790.7 409 818 413C845.3 417 872.7 401 886.3 393L900 385L900 341L886.3 348C872.7 355 845.3 369 818 361C790.7 353 763.3 323 736.2 311C709 299 682 305 654.8 286C627.7 267 600.3 223 573 227C545.7 231 518.3 283 491 289C463.7 295 436.3 255 409 249C381.7 243 354.3 271 327 286C299.7 301 272.3 303 245.2 308C218 313 191 321 163.8 304C136.7 287 109.3 245 82 240C54.7 235 27.3 267 13.7 283L0 299Z" fill="#7097a1"></path><path d="M0 493L13.7 498C27.3 503 54.7 513 82 510C109.3 507 136.7 491 163.8 486C191 481 218 487 245.2 497C272.3 507 299.7 521 327 527C354.3 533 381.7 531 409 527C436.3 523 463.7 517 491 519C518.3 521 545.7 531 573 525C600.3 519 627.7 497 654.8 499C682 501 709 527 736.2 540C763.3 553 790.7 553 818 554C845.3 555 872.7 557 886.3 558L900 559L900 383L886.3 391C872.7 399 845.3 415 818 411C790.7 407 763.3 383 736.2 371C709 359 682 359 654.8 343C627.7 327 600.3 295 573 302C545.7 309 518.3 355 491 358C463.7 361 436.3 321 409 310C381.7 299 354.3 317 327 331C299.7 345 272.3 355 245.2 364C218 373 191 381 163.8 371C136.7 361 109.3 333 82 330C54.7 327 27.3 349 13.7 360L0 371Z" fill="#61838b"></path><path d="M0 601L13.7 601C27.3 601 54.7 601 82 601C109.3 601 136.7 601 163.8 601C191 601 218 601 245.2 601C272.3 601 299.7 601 327 601C354.3 601 381.7 601 409 601C436.3 601 463.7 601 491 601C518.3 601 545.7 601 573 601C600.3 601 627.7 601 654.8 601C682 601 709 601 736.2 601C763.3 601 790.7 601 818 601C845.3 601 872.7 601 886.3 601L900 601L900 557L886.3 556C872.7 555 845.3 553 818 552C790.7 551 763.3 551 736.2 538C709 525 682 499 654.8 497C627.7 495 600.3 517 573 523C545.7 529 518.3 519 491 517C463.7 515 436.3 521 409 525C381.7 529 354.3 531 327 525C299.7 519 272.3 505 245.2 495C218 485 191 479 163.8 484C136.7 489 109.3 505 82 508C54.7 511 27.3 501 13.7 496L0 491Z" fill="#526f76"></path></svg>