<svg id="visual" viewBox="0 0 900 600" width="900" height="600" xmlns="http://www.w3.org/2000/svg" xmlns:xlink="http://www.w3.org/1999/xlink" version="1.1"><rect x="0" y="0" width="900" height="600" fill="#001220"></rect><path d="M0 370L21.5 380C43 390 86 410 128.8 407.3C171.7 404.7 214.3 379.3 257.2 377C300 374.7 343 395.3 385.8 401.3C428.7 407.3 471.3 398.7 514.2 400.5C557 402.3 600 414.7 642.8 418.8C685.7 423 728.3 419 771.2 418C814 417 857 419 878.5 420L900 421L900 601L878.5 601C857 601 814 601 771.2 601C728.3 601 685.7 601 642.8 601C600 601 557 601 514.2 601C471.3 601 428.7 601 385.8 601C343 601 300 601 257.2 601C214.3 601 171.7 601 128.8 601C86 601 43 601 21.5 601L0 601Z" fill="#fa7268"></path><path d="M0 417L21.5 418.5C43 420 86 423 128.8 423.2C171.7 423.3 214.3 420.7 257.2 415.5C300 410.3 343 402.7 385.8 403.7C428.7 404.7 471.3 414.3 514.2 419.2C557 424 600 424 642.8 432.8C685.7 441.7 728.3 459.3 771.2 467.3C814 475.3 857 473.7 878.5 472.8L900 472L900 601L878.5 601C857 601 814 601 771.2 601C728.3 601 685.7 601 642.8 601C600 601 557 601 514.2 601C471.3 601 428.7 601 385.8 601C343 601 300 601 257.2 601C214.3 601 171.7 601 128.8 601C86 601 43 601 21.5 601L0 601Z" fill="#ef5f67"></path><path d="M0 477L21.5 476.3C43 475.7 86 474.3 128.8 475.5C171.7 476.7 214.3 480.3 257.2 484C300 487.7 343 491.3 385.8 495.8C428.7 500.3 471.3 505.7 514.2 502.2C557 498.7 600 486.3 642.8 475.7C685.7 465 728.3 456 771.2 450.8C814 445.7 857 444.3 878.5 443.7L900 443L900 601L878.5 601C857 601 814 601 771.2 601C728.3 601 685.7 601 642.8 601C600 601 557 601 514.2 601C471.3 601 428.7 601 385.8 601C343 601 300 601 257.2 601C214.3 601 171.7 601 128.8 601C86 601 43 601 21.5 601L0 601Z" fill="#e34c67"></path><path d="M0 542L21.5 539.3C43 536.7 86 531.3 128.8 530.2C171.7 529 214.3 532 257.2 524.7C300 517.3 343 499.7 385.8 495.2C428.7 490.7 471.3 499.3 514.2 506.5C557 513.7 600 519.3 642.8 518.5C685.7 517.7 728.3 510.3 771.2 506.5C814 502.7 857 502.3 878.5 502.2L900 502L900 601L878.5 601C857 601 814 601 771.2 601C728.3 601 685.7 601 642.8 601C600 601 557 601 514.2 601C471.3 601 428.7 601 385.8 601C343 601 300 601 257.2 601C214.3 601 171.7 601 128.8 601C86 601 43 601 21.5 601L0 601Z" fill="#d53867"></path><path d="M0 533L21.5 536C43 539 86 545 128.8 544C171.7 543 214.3 535 257.2 531.7C300 528.3 343 529.7 385.8 530.2C428.7 530.7 471.3 530.3 514.2 531.7C557 533 600 536 642.8 536.3C685.7 536.7 728.3 534.3 771.2 538.5C814 542.7 857 553.3 878.5 558.7L900 564L900 601L878.5 601C857 601 814 601 771.2 601C728.3 601 685.7 601 642.8 601C600 601 557 601 514.2 601C471.3 601 428.7 601 385.8 601C343 601 300 601 257.2 601C214.3 601 171.7 601 128.8 601C86 601 43 601 21.5 601L0 601Z" fill="#c62368"></path></svg>